<svg xmlns="http://www.w3.org/2000/svg" width="512" height="512" viewBox="0 0 512 512" version="1.1"><path d="" stroke="none" fill="#080404" fill-rule="evenodd"/><path d="M 249.500 1.417 C 244.033 3.857, 96.542 150.188, 94.562 155.137 C 91.226 163.474, 94.782 172.613, 102.970 176.750 C 107.342 178.958, 108.085 179, 143.212 179 L 179 179 179.004 270.750 C 179.009 388.024, 167.407 372.406, 254.793 372.778 C 344.238 373.159, 332.365 388.528, 333 271.544 L 333.500 179.500 370 179 C 404.527 178.527, 406.689 178.389, 409.997 176.446 C 417.893 171.807, 420.923 162.115, 416.868 154.469 C 413.876 148.827, 267.043 3.412, 262.282 1.376 C 258.265 -0.342, 253.406 -0.326, 249.500 1.417 M 201.479 94.727 L 147.598 147.500 174.049 148 C 214.445 148.764, 209.872 135.673, 209.944 250.760 L 210 342.020 256.250 341.760 L 302.500 341.500 303 248 C 303.275 196.575, 303.866 153.934, 304.313 153.243 C 307.007 149.080, 310.629 148.516, 338 148 L 364.500 147.500 310.940 95.063 C 281.482 66.223, 256.926 42.475, 256.370 42.290 C 255.815 42.105, 231.114 65.701, 201.479 94.727 M 187.013 390.275 C 176.236 395.974, 176.220 411.428, 186.984 417.148 C 192.217 419.929, 319.461 420.021, 324.980 417.248 C 335.974 411.725, 335.738 394.964, 324.595 389.904 C 320.740 388.153, 316.717 388.043, 255.907 388.022 L 191.315 388 187.013 390.275 M 186.241 436.995 C 176.221 443.104, 176.632 457.353, 187.003 463.446 C 191.165 465.891, 310.136 467.302, 320.599 465.031 C 334.423 462.030, 337.692 444.270, 325.759 436.995 C 320.665 433.889, 191.335 433.889, 186.241 436.995 M 187.036 483.250 C 176.488 488.659, 176.241 503.793, 186.604 509.734 L 190.500 511.967 256.016 511.984 C 317.878 511.999, 321.726 511.897, 325.016 510.148 C 335.837 504.398, 335.874 488.548, 325.079 483.040 C 321.175 481.049, 319.533 481, 256.252 481 L 191.424 481 187.036 483.250" stroke="none" fill="#ffff" fill-rule="evenodd"/></svg>