<svg xmlns="http://www.w3.org/2000/svg" width="1500" height="1500" viewBox="0 0 1500 1500" version="1.1"><path d="" stroke="none" fill="#b0b1ae" fill-rule="evenodd"/><path d="M 711 88.293 C 710.725 88.575, 706.339 89.308, 701.253 89.923 C 696.167 90.537, 690.992 91.423, 689.753 91.891 C 688.514 92.358, 684.800 93.548, 681.500 94.534 C 671.324 97.575, 658 103.509, 658 104.999 C 658 105.515, 657.438 105.745, 656.750 105.509 C 656.063 105.274, 653.700 106.184, 651.500 107.530 C 649.300 108.877, 646.450 110.437, 645.166 110.997 C 643.882 111.556, 641.471 113.376, 639.807 115.039 C 636.475 118.371, 636.468 118.811, 639.583 129.599 C 641.412 135.935, 640.970 141.016, 637.111 158 C 636.549 160.475, 635.562 167, 634.919 172.500 C 633.840 181.727, 633.917 185.829, 635.514 204 C 636.361 213.636, 631.078 214.553, 624 205.999 C 619.585 200.663, 605.855 198.791, 599 202.589 C 590.712 207.181, 580.064 214.603, 580.033 215.809 C 580.015 216.529, 579.602 216.872, 579.115 216.571 C 578.330 216.086, 574.169 219.727, 561.295 232.168 C 554.408 238.823, 543.725 250.192, 536.760 258.278 C 532.988 262.658, 529.361 266.792, 528.701 267.465 C 528.040 268.138, 525.700 270.841, 523.500 273.471 C 521.300 276.101, 519.041 278.758, 518.479 279.376 C 517.918 279.994, 515.668 282.750, 513.479 285.500 C 511.291 288.250, 509.221 290.725, 508.880 291 C 507.029 292.494, 496.949 306.554, 489.388 318.188 C 484.630 325.509, 479.896 332.719, 478.868 334.210 C 477.841 335.700, 477 337.210, 477 337.566 C 477 337.921, 475.650 339.917, 474 342 C 472.350 344.083, 471 346.248, 471 346.811 C 471 347.373, 470.663 347.983, 470.250 348.167 C 469.837 348.350, 468.663 350.075, 467.639 352 C 454.428 376.846, 455.080 375.561, 444.519 397.500 C 440.812 405.200, 436.479 414.094, 434.889 417.265 C 433.300 420.435, 432 423.698, 432 424.515 C 432 425.332, 431.550 426, 431 426 C 430.450 426, 430 426.513, 430 427.140 C 430 428.271, 425.964 437.039, 425.001 438 C 423.497 439.501, 420 445.067, 420 445.960 C 420 446.532, 419.647 447, 419.216 447 C 418.784 447, 417.694 448.238, 416.793 449.750 C 415.891 451.262, 414.196 453.518, 413.026 454.763 C 411.856 456.008, 411.172 457.470, 411.508 458.013 C 411.844 458.556, 411.516 459, 410.781 459 C 408.286 459, 402.010 467.973, 402.004 471.550 C 402.002 472.677, 401.594 474.027, 401.097 474.550 C 399.319 476.421, 395.175 494.086, 391.962 513.500 C 390.020 525.231, 391.721 552.532, 394.775 558.639 C 395.287 559.663, 396.550 562.300, 397.583 564.500 C 404.868 580.025, 414.645 593.369, 429.703 608.339 C 443.750 622.303, 448.853 627, 449.979 627 C 450.605 627, 450.867 627.406, 450.561 627.901 C 450.255 628.397, 451.300 631.435, 452.885 634.651 C 454.470 637.868, 456.078 641.957, 456.460 643.739 C 456.842 645.520, 457.569 647.234, 458.077 647.548 C 458.585 647.861, 459 648.765, 459 649.556 C 459 653.160, 469.032 671.163, 473.578 675.719 C 474.247 676.389, 476.952 679.876, 479.590 683.469 C 482.228 687.061, 484.749 690, 485.193 690 C 485.637 690, 486 690.465, 486 691.033 C 486 691.602, 487.560 693.627, 489.467 695.533 C 491.373 697.440, 492.701 699, 492.416 699 C 492.132 699, 493.840 701.813, 496.213 705.250 C 507.259 721.255, 509.682 737.765, 504.542 762 C 501.347 777.063, 500.791 784.427, 501.321 804.663 C 501.930 827.917, 503.208 824.845, 489.500 833.088 C 484.550 836.065, 480.350 838.837, 480.167 839.250 C 479.983 839.663, 479.221 840, 478.473 840 C 477.725 840, 476.485 840.897, 475.717 841.994 C 474.949 843.090, 474.026 843.693, 473.666 843.333 C 473.307 842.973, 472.222 843.377, 471.256 844.230 C 470.290 845.084, 467.925 846.650, 466 847.711 C 458.181 852.021, 456.012 853.561, 456.006 854.809 C 456.003 855.529, 455.524 855.824, 454.943 855.464 C 454.361 855.105, 450.872 856.766, 447.190 859.155 C 443.508 861.545, 439.596 864.034, 438.498 864.688 C 429.417 870.086, 417.407 877.545, 417 878.039 C 416.725 878.373, 415.825 878.968, 415 879.362 C 413.506 880.075, 412.467 880.700, 406.211 884.649 C 402.923 886.725, 402.923 886.725, 396.266 879.831 C 392.557 875.989, 389.032 873.157, 388.305 873.436 C 387.587 873.712, 387 873.363, 387 872.661 C 387 868.738, 367.707 865.374, 352.193 866.593 C 344.057 867.233, 336.049 871.202, 330.469 877.362 C 329.902 877.988, 327.766 879.400, 325.722 880.500 C 323.678 881.600, 321.977 882.950, 321.943 883.500 C 321.909 884.050, 321.061 884.803, 320.059 885.174 C 319.057 885.544, 317.414 887.569, 316.408 889.674 C 314.886 892.856, 313.258 894.144, 306.729 897.326 C 302.412 899.430, 298.634 901.790, 298.335 902.570 C 298.035 903.350, 297.383 903.737, 296.886 903.429 C 296.388 903.122, 294.799 903.799, 293.355 904.935 C 291.912 906.071, 290.116 907, 289.365 907 C 288.614 907, 288 907.450, 288 908 C 288 908.550, 287.532 909, 286.960 909 C 285.776 909, 279.673 913.111, 279.167 914.250 C 278.983 914.662, 278.409 915, 277.891 915 C 276.597 915, 267 922.238, 267 923.213 C 267 923.646, 266.538 924, 265.973 924 C 265.050 924, 263.009 925.678, 255.389 932.702 C 254.075 933.913, 253 935.376, 253 935.952 C 253 936.529, 252.555 937, 252.011 937 C 251.467 937, 247.980 940.231, 244.261 944.179 C 240.543 948.128, 236.713 952.178, 235.750 953.179 C 234.788 954.181, 234 955.250, 234 955.556 C 234 955.862, 232.722 957.325, 231.160 958.806 C 229.598 960.288, 225.934 964.425, 223.018 968 C 220.101 971.575, 217.271 974.787, 216.729 975.138 C 216.187 975.489, 216.053 976.277, 216.431 976.888 C 216.809 977.500, 216.516 978, 215.781 978 C 214.310 978, 213.947 978.391, 206.014 988.505 C 202.996 992.352, 200.045 995.950, 199.457 996.500 C 186.829 1008.294, 190.939 1012.712, 215.853 1014.125 C 238.386 1015.403, 245.660 1014.665, 261.480 1009.500 C 268.641 1007.161, 276.060 1004.910, 277.967 1004.497 C 279.874 1004.084, 282.124 1003.404, 282.967 1002.987 C 283.810 1002.570, 289.900 1000.534, 296.500 998.462 C 303.100 996.391, 308.928 994.314, 309.450 993.848 C 309.973 993.382, 311.029 993, 311.799 993 C 312.568 993, 314.616 992.370, 316.349 991.599 C 318.082 990.829, 320.400 989.953, 321.500 989.653 C 322.600 989.352, 328.225 987.471, 334 985.472 C 347.964 980.640, 359.874 977.178, 372 974.428 C 384.608 971.569, 399.758 969.986, 423.571 969.042 C 436.809 968.517, 448.876 967.617, 450.386 967.043 C 451.895 966.470, 454.078 966, 455.236 966 C 456.394 966, 460.078 964.703, 463.421 963.118 C 466.764 961.533, 471.750 959.524, 474.500 958.654 C 487.227 954.629, 489.467 954, 491.063 954 C 492.002 954, 494.960 953.362, 497.635 952.583 C 515.214 947.461, 521.722 946.861, 522.409 950.297 C 523.431 955.404, 523.016 964.255, 521.438 971 C 518.032 985.567, 517.159 989.619, 514.679 1002.363 C 513.771 1007.027, 513.060 1008.407, 511.202 1009.113 C 508.165 1010.268, 495.551 1013.115, 490.750 1013.730 C 485.585 1014.391, 485.901 1016.663, 491.250 1017.324 C 497.289 1018.071, 509.222 1020.943, 510.457 1021.947 C 512.092 1023.276, 526.490 1028.029, 531.750 1028.976 C 543.759 1031.138, 566.507 1040.144, 555.500 1038.378 C 553.300 1038.026, 550.702 1037.324, 549.726 1036.820 C 548.750 1036.316, 541.550 1035.490, 533.726 1034.984 C 525.902 1034.478, 516.848 1033.773, 513.607 1033.417 C 499.293 1031.846, 472.789 1037.185, 451.500 1045.929 C 445.851 1048.248, 432.079 1055.534, 426.270 1059.276 C 423.943 1060.774, 421.758 1062, 421.414 1062 C 421.069 1062, 419.083 1063.350, 417 1065 C 414.917 1066.650, 412.928 1068, 412.580 1068 C 411.506 1068, 402 1075.379, 402 1076.213 C 402 1076.646, 401.550 1077, 401 1077 C 400.450 1077, 399.186 1077.788, 398.190 1078.750 C 397.195 1079.713, 393.755 1082.740, 390.546 1085.477 C 379.426 1094.961, 357.010 1122.542, 357.002 1126.750 C 357.001 1127.438, 356.594 1128, 356.098 1128 C 355.602 1128, 354.725 1129.350, 354.150 1131 C 353.546 1132.732, 352.392 1134, 351.420 1134 C 349.488 1134, 342.695 1137.931, 342.106 1139.391 C 341.104 1141.868, 324.622 1155, 322.514 1155 C 321.575 1155, 315.684 1159.305, 313.752 1161.403 C 307.936 1167.720, 318.914 1188, 328.150 1188 C 330.431 1188, 330.541 1190.517, 328.537 1196.866 C 321.742 1218.390, 319.412 1245.437, 322.711 1264.500 C 323.378 1268.350, 324.383 1274.425, 324.946 1278 C 325.881 1283.947, 326.666 1287.981, 330.007 1304 C 330.638 1307.025, 331.569 1309.927, 332.077 1310.450 C 332.585 1310.972, 333.003 1312.547, 333.006 1313.950 C 333.010 1315.352, 333.685 1317.789, 334.506 1319.364 C 335.328 1320.940, 336 1322.895, 336 1323.710 C 336 1324.525, 336.626 1326.386, 337.392 1327.846 C 338.158 1329.306, 339.577 1332.525, 340.545 1335 C 344.841 1345.983, 348.830 1353.361, 357.539 1366.435 C 365.959 1379.075, 381.128 1395.657, 383.135 1394.416 C 383.611 1394.122, 384 1394.487, 384 1395.228 C 384 1396.438, 393.091 1404, 394.545 1404 C 394.874 1404, 395.822 1404.679, 396.652 1405.509 C 397.482 1406.339, 398.528 1406.792, 398.976 1406.515 C 399.424 1406.238, 400.035 1406.649, 400.334 1407.429 C 401.842 1411.358, 438.499 1425.749, 456 1429.283 C 460.125 1430.116, 466.200 1431.335, 469.500 1431.993 C 486.267 1435.334, 520.979 1433.991, 536.188 1429.411 C 538.766 1428.635, 541.691 1427.997, 542.688 1427.994 C 543.685 1427.990, 545.789 1427.315, 547.364 1426.494 C 548.940 1425.672, 550.795 1425, 551.487 1425 C 554.832 1425, 581.916 1411.920, 581.964 1410.281 C 581.984 1409.611, 582.603 1409.294, 583.340 1409.577 C 584.077 1409.860, 585.257 1409.396, 585.962 1408.546 C 586.668 1407.695, 587.879 1407, 588.654 1407 C 589.429 1407, 590.322 1406.325, 590.638 1405.500 C 590.955 1404.675, 591.634 1404, 592.147 1404 C 595.574 1404, 626 1377.288, 626 1374.279 C 626 1373.575, 626.563 1372.989, 627.250 1372.976 C 627.938 1372.963, 629.824 1371.163, 631.442 1368.976 C 633.060 1366.789, 634.747 1365, 635.192 1365 C 635.636 1365, 636 1364.362, 636 1363.583 C 636 1362.804, 636.399 1362.017, 636.886 1361.833 C 638.135 1361.363, 645 1352.190, 645 1350.991 C 645 1350.446, 645.461 1350, 646.025 1350 C 646.588 1350, 647.487 1348.987, 648.022 1347.750 C 649.092 1345.277, 651.182 1341.783, 652.061 1341 C 653.963 1339.305, 663.441 1321.293, 667.583 1311.500 C 668.281 1309.850, 669.560 1306.857, 670.426 1304.849 C 671.292 1302.841, 672 1300.530, 672 1299.713 C 672 1298.897, 672.672 1296.940, 673.494 1295.364 C 674.315 1293.789, 674.990 1291.685, 674.994 1290.688 C 674.997 1289.691, 675.634 1286.766, 676.410 1284.188 C 682.959 1262.408, 685.983 1214.686, 682.188 1193 C 681.466 1188.875, 680.475 1183.250, 679.985 1180.500 C 679.006 1174.998, 681.013 1172.334, 691.500 1165.215 C 693.700 1163.722, 696.098 1161.935, 696.828 1161.243 C 700.293 1157.965, 701.413 1158.100, 708.016 1162.589 C 711.582 1165.014, 715.063 1166.998, 715.750 1166.999 C 716.438 1166.999, 717 1167.366, 717 1167.813 C 717 1169.838, 727.193 1173, 733.721 1173 C 741.595 1173, 747.977 1166.941, 813.247 1097.500 C 817.383 1093.100, 822.282 1087.762, 824.134 1085.639 C 825.985 1083.515, 829.750 1079.430, 832.500 1076.561 C 835.250 1073.692, 840.650 1067.780, 844.500 1063.423 C 853.318 1053.443, 877.463 1029.304, 890.435 1017.500 C 895.874 1012.550, 902.020 1006.925, 904.091 1005 C 910.084 999.431, 912.982 996.856, 921.500 989.527 C 925.900 985.741, 930.491 981.599, 931.702 980.322 C 932.913 979.045, 934.338 978, 934.869 978 C 935.399 978, 935.983 977.602, 936.167 977.116 C 936.350 976.630, 940.325 972.951, 945 968.941 C 956.321 959.229, 968.205 947.182, 975.523 938 C 978.810 933.875, 981.950 929.953, 982.500 929.285 C 983.050 928.616, 983.965 927.491, 984.533 926.785 C 988.095 922.354, 1003.717 898.194, 1004.601 895.750 C 1004.949 894.788, 1005.610 894, 1006.070 894 C 1011.689 894, 1009.985 883.705, 1003.535 878.691 C 1001.316 876.965, 999.140 874.979, 998.700 874.277 C 998.260 873.575, 997.360 872.999, 996.700 872.997 C 989.513 872.981, 985.493 861.954, 991.451 858.599 C 994.383 856.947, 996.929 853.732, 996.967 851.633 C 996.992 850.207, 997.531 849.896, 999.250 850.314 C 1008.632 852.598, 1011.141 853.314, 1016 855.092 C 1019.025 856.199, 1024.425 857.984, 1028 859.058 C 1031.575 860.132, 1036.005 861.503, 1037.845 862.104 C 1041.100 863.169, 1043.846 863.652, 1060.500 866.095 C 1069.514 867.417, 1094.841 866.820, 1102 865.117 C 1104.475 864.528, 1108.750 863.614, 1111.500 863.086 C 1120.694 861.321, 1126.491 859.797, 1127.450 858.895 C 1127.973 858.403, 1129.029 858, 1129.799 858 C 1134.614 858, 1166.521 841.021, 1172.551 835.250 C 1173.269 834.562, 1174.302 834, 1174.845 834 C 1175.389 834, 1175.983 833.662, 1176.167 833.250 C 1176.350 832.837, 1178.300 831.158, 1180.500 829.517 C 1189.048 823.142, 1209.221 803.167, 1208.421 801.872 C 1208.124 801.392, 1208.484 801, 1209.219 801 C 1210.803 801, 1211.189 800.564, 1221.790 786.833 C 1226.305 780.983, 1230 775.740, 1230 775.182 C 1230 774.624, 1230.354 774.017, 1230.787 773.833 C 1232.618 773.058, 1245 749.654, 1245 746.969 C 1245 746.106, 1245.381 744.972, 1245.848 744.450 C 1246.875 743.299, 1252.714 725.570, 1253.997 719.706 C 1254.504 717.393, 1255.402 713.025, 1255.994 710 C 1256.586 706.975, 1257.529 702.250, 1258.091 699.500 C 1261.274 683.915, 1261.231 637.999, 1258.026 629.569 C 1257.462 628.084, 1257 625.883, 1257 624.677 C 1257 610.112, 1228.934 558, 1221.090 558 C 1220.426 558, 1220.108 557.634, 1220.384 557.188 C 1222.098 554.415, 1184.504 525, 1179.246 525 C 1178.695 525, 1177.659 524.294, 1176.942 523.430 C 1176.226 522.567, 1174.821 522.075, 1173.820 522.337 C 1172.819 522.599, 1172 522.395, 1172 521.885 C 1172 521.375, 1170.763 520.461, 1169.250 519.854 C 1167.737 519.247, 1165.600 518.370, 1164.500 517.905 C 1162.421 517.025, 1154.370 514.412, 1145.135 511.621 C 1142.185 510.730, 1138.582 510, 1137.129 510 C 1135.676 510, 1132.915 509.543, 1130.993 508.986 C 1128.334 508.213, 1112.332 507, 1104.804 507 C 1104.362 507, 1104 506.557, 1104 506.015 C 1104 501.739, 1093.958 494.503, 1088.170 494.607 C 1076.065 494.825, 1034.119 507.874, 1030.401 512.578 C 1029.797 513.343, 1029.035 513.702, 1028.708 513.375 C 1028.046 512.712, 1015.002 520.409, 1008.460 525.323 C 1006.133 527.070, 1003.271 529.167, 1002.100 529.982 C 1000.145 531.342, 1000.115 531.518, 1001.735 532.124 C 1003.357 532.732, 1003.338 532.848, 1001.500 533.554 C 1000.400 533.976, 997.164 536.499, 994.310 539.161 C 991.455 541.822, 988.438 544, 987.604 544 C 986.771 544, 984.431 545.125, 982.405 546.500 C 976.848 550.271, 973.234 548.851, 973.813 543.125 C 973.959 541.681, 974.492 536.225, 974.999 531 C 976.707 513.378, 979.999 494.666, 983.356 483.500 C 984.182 480.750, 985.372 476.700, 986 474.500 C 986.629 472.300, 987.883 468.250, 988.787 465.500 C 991.280 457.924, 990.950 443.039, 988.134 436 C 985.196 428.659, 982.667 423.574, 981.750 423.167 C 981.337 422.983, 981 422.248, 981 421.533 C 981 419.876, 973.738 413.280, 970.196 411.721 C 967.166 410.387, 957.842 404.045, 956.862 402.651 C 956.511 402.152, 955.723 402.053, 955.112 402.431 C 954.478 402.823, 954 402.448, 954 401.559 C 954 400.167, 952.848 399.559, 951.519 400.250 C 951.255 400.387, 950.329 399.488, 949.463 398.250 C 948.596 397.012, 947.275 396, 946.527 396 C 945.779 396, 945.003 395.509, 944.803 394.908 C 944.602 394.307, 943.215 393.745, 941.720 393.658 C 940.225 393.571, 939.001 393.030, 939.001 392.456 C 938.997 387.256, 891.572 383.434, 859.434 386.044 C 848.736 386.913, 846.068 386.846, 843.539 385.649 C 836.504 382.319, 831.229 380.473, 817.500 376.536 C 814.200 375.590, 810.047 374.382, 808.272 373.851 C 806.497 373.321, 802.897 372.484, 800.272 371.991 C 795.098 371.021, 787.666 369.590, 779 367.896 C 775.975 367.305, 765.291 366.577, 755.257 366.278 C 734.853 365.670, 736.333 367.359, 739.065 347.808 C 740.915 334.570, 739.256 322.742, 733.960 311.415 C 732.332 307.933, 731 304.652, 731 304.125 C 731 303.598, 730.663 303.017, 730.250 302.833 C 729.837 302.650, 727.795 299.173, 725.711 295.106 C 721.456 286.803, 721.091 288.216, 729.783 279.349 C 733.621 275.435, 744.309 274.427, 748.779 277.558 C 750.003 278.415, 751.453 278.838, 752.002 278.499 C 752.551 278.160, 753 278.499, 753 279.254 C 753 281.628, 762.882 285.213, 769.843 285.363 C 776.186 285.500, 776.186 285.500, 782.843 278.393 C 792.664 267.908, 801 257.323, 801 255.339 C 801 254.964, 801.595 253.947, 802.322 253.079 C 804.435 250.556, 805.929 244.242, 806.955 233.500 C 808.016 222.398, 809.487 210.109, 811.025 199.500 C 814.357 176.525, 815.287 155.698, 813.292 148.762 C 808.848 133.320, 799.544 116.732, 795.896 117.750 C 795.403 117.887, 795 117.425, 795 116.722 C 795 116.019, 794.092 114.667, 792.983 113.718 C 789.845 111.031, 781.098 105, 780.339 105 C 779.964 105, 778.947 104.404, 778.079 103.676 C 777.210 102.947, 773.125 100.947, 769 99.230 C 762.267 96.427, 759.225 95.392, 747.047 91.755 C 740.609 89.832, 712.163 87.100, 711 88.293 M 728.142 449.737 C 726.899 452.063, 727.553 460.351, 729.018 460.839 C 730.653 461.384, 734.045 469.718, 733.360 471.505 C 733.044 472.327, 733.284 473, 733.893 473 C 734.502 473, 735 473.765, 735 474.700 C 735 475.900, 735.312 476.088, 736.063 475.337 C 737.961 473.439, 737.356 468.428, 734.535 462.661 C 732.417 458.333, 731.925 456.213, 732.422 453.563 C 733.205 449.392, 729.903 446.442, 728.142 449.737 M 759.598 467.736 C 759.269 468.064, 759 469.293, 759 470.467 C 759 471.640, 758.512 473.088, 757.916 473.684 C 752.831 478.769, 759.582 495, 766.782 495 C 767.334 495, 768.045 495.675, 768.362 496.500 C 768.678 497.325, 769.626 498, 770.469 498 C 771.311 498, 772 498.378, 772 498.839 C 772 500.313, 777.208 502.192, 778.291 501.109 C 779.811 499.589, 779.775 483.768, 778.250 483.255 C 777.563 483.023, 777 482.288, 777 481.622 C 777 478.018, 761.603 465.731, 759.598 467.736 M 652 514.172 C 643.062 516.046, 642.135 516.070, 636.336 514.582 C 627.919 512.422, 626.350 512.562, 622.144 515.844 C 616.447 520.291, 613.334 520.982, 607.500 519.098 C 599.766 516.601, 592.575 518.212, 585.232 524.087 C 582.080 526.609, 578.663 528.977, 577.641 529.347 C 575.278 530.204, 576.070 535.518, 579.360 540.880 C 580.582 542.871, 582.392 546.525, 583.383 549 C 584.374 551.475, 585.785 554.850, 586.518 556.500 C 588.223 560.334, 590.266 565.308, 592.473 571 C 593.433 573.475, 594.660 576.622, 595.199 577.994 C 595.738 579.366, 597.250 583.769, 598.559 587.778 C 602.438 599.661, 602.079 599.526, 608.499 591.500 C 613.082 585.771, 618.530 580.368, 625 575.138 C 627.475 573.137, 629.650 571.163, 629.833 570.750 C 630.017 570.337, 630.559 570, 631.039 570 C 631.519 570, 633.619 568.831, 635.706 567.402 C 639.768 564.620, 653.473 558, 655.169 558 C 655.731 558, 657.386 557.349, 658.846 556.554 C 660.306 555.759, 665.550 553.712, 670.500 552.004 C 675.450 550.297, 680.978 548.247, 682.784 547.450 C 684.590 546.652, 686.772 546, 687.633 546 C 689.561 546, 696 543.015, 696 542.121 C 696 541.762, 692.513 539.127, 688.250 536.264 C 678.562 529.757, 673.461 525.088, 668.022 517.750 C 665.678 514.587, 663.251 512.041, 662.630 512.091 C 662.008 512.140, 657.225 513.077, 652 514.172 M 1105.500 581.119 C 1086.475 584.477, 1070 589.984, 1070 592.983 C 1070 593.398, 1075.455 593.790, 1082.121 593.856 C 1095.824 593.990, 1105.145 596.139, 1116.711 601.832 C 1120.540 603.717, 1121.058 603.315, 1122.671 597.202 C 1126.778 581.640, 1122.935 578.041, 1105.500 581.119 M 1149.179 590.684 C 1142.335 597.569, 1143.003 615, 1150.111 615 C 1151.150 615, 1152 615.420, 1152 615.933 C 1152 616.446, 1153.013 617.184, 1154.250 617.574 C 1161.622 619.897, 1177.149 635.683, 1182.026 645.814 C 1186.844 655.822, 1187.662 657.970, 1189.051 664.256 C 1190.615 671.337, 1190.770 671.201, 1191.977 661.684 C 1193.798 647.318, 1188.119 620.155, 1182.878 618.167 C 1182.395 617.983, 1182 617.387, 1182 616.841 C 1182 614.229, 1164.245 594, 1161.952 594 C 1161.429 594, 1161 593.571, 1161 593.047 C 1161 592.523, 1159.313 591.322, 1157.250 590.379 C 1155.188 589.435, 1153.158 588.485, 1152.739 588.266 C 1152.320 588.047, 1150.718 589.135, 1149.179 590.684 M 1081.998 782.750 C 1075.014 788.420, 1070.785 794.275, 1071.181 797.726 C 1071.783 802.964, 1091.555 799.409, 1096.750 793.129 C 1103.165 785.374, 1090.094 776.178, 1081.998 782.750 M 480 1135.153 C 476.975 1136.877, 474.350 1138.673, 474.167 1139.144 C 473.983 1139.615, 473.357 1140, 472.774 1140 C 470.222 1140, 447.297 1161.447, 448.834 1162.397 C 449.294 1162.682, 451.207 1162.515, 453.085 1162.027 C 457.016 1161.007, 465.251 1159.117, 469.214 1158.325 C 471.810 1157.807, 477 1152.302, 477 1150.067 C 477 1149.480, 477.406 1149, 477.902 1149 C 478.398 1149, 479.301 1147.763, 479.907 1146.250 C 480.514 1144.737, 482.343 1141.250, 483.972 1138.500 C 488.538 1130.793, 488.180 1130.491, 480 1135.153 M 484.133 1294.074 C 481.965 1294.942, 474.328 1296.762, 463.107 1299.084 C 458.004 1300.140, 455.824 1301.655, 456.176 1303.903 C 456.313 1304.781, 455.188 1308.177, 453.677 1311.449 C 448.399 1322.873, 456.630 1333.747, 474.500 1338.960 C 481.725 1341.068, 522.442 1341.596, 525.457 1339.620 C 528.413 1337.684, 528.993 1332.136, 526.500 1329.643 C 525.675 1328.818, 525 1327.849, 525 1327.491 C 525 1325.281, 515.991 1313.892, 506.615 1304.250 C 494.847 1292.147, 492.078 1290.894, 484.133 1294.074" stroke="none" fill="#fcfcfc" fill-rule="evenodd"/></svg>