<svg width="3193.003" height="470.503" viewBox="0 0 3193.003 470.503" xmlns="http://www.w3.org/2000/svg"><g id="svgGroup" stroke-linecap="round" fill-rule="evenodd" font-size="9pt" stroke="#ffffff" stroke-width="0.1mm" fill="#ffffff" style="stroke:#ffffff;stroke-width:0.1mm;fill:#ffffff"><path d="M 0.003 310.502 L 0.003 77.502 A 110.396 110.396 0 0 1 1.832 56.702 Q 6.163 34.158 20.753 21.502 Q 41.503 3.502 70.503 3.502 Q 98.003 3.502 117.253 21.502 A 75.828 75.828 0 0 1 131.202 39.593 Q 140.159 55.346 145.503 78.502 L 184.503 248.002 L 197.503 248.002 L 236.503 78.502 A 170.361 170.361 0 0 1 243.178 56.178 Q 251.675 33.877 265.253 21.502 Q 285.003 3.502 312.503 3.502 Q 341.503 3.502 362.253 21.502 A 55.989 55.989 0 0 1 378.669 46.945 Q 381.716 56.219 382.621 67.558 A 125.085 125.085 0 0 1 383.003 77.502 L 383.003 310.502 A 86.047 86.047 0 0 1 381.392 327.659 Q 379.246 338.199 374.245 346.387 A 49.205 49.205 0 0 1 370.253 352.002 Q 358.175 366.684 334.208 367.459 A 83.79 83.79 0 0 1 331.503 367.502 A 64.424 64.424 0 0 1 315.674 365.67 A 43.377 43.377 0 0 1 293.003 352.002 Q 279.503 336.502 279.503 310.502 L 279.503 176.002 Q 279.503 171.002 278.253 166.752 Q 277.306 163.531 273.918 162.751 A 10.782 10.782 0 0 0 271.503 162.502 Q 267.652 162.502 265.632 165.614 A 9.575 9.575 0 0 0 265.003 166.752 A 39.171 39.171 0 0 0 262.413 174.153 A 44.788 44.788 0 0 0 262.003 176.002 L 243.003 302.002 A 338.009 338.009 0 0 1 240.202 316.568 Q 238.652 323.734 236.911 330.022 A 182.264 182.264 0 0 1 234.753 337.252 A 55.672 55.672 0 0 1 230.027 348.081 A 39.651 39.651 0 0 1 220.003 359.752 Q 212.442 365.612 199.735 367.041 A 78.252 78.252 0 0 1 191.003 367.502 A 71.66 71.66 0 0 1 180.246 366.745 Q 169.3 365.08 162.253 359.752 A 39.838 39.838 0 0 1 151.377 346.949 A 55.201 55.201 0 0 1 147.253 337.252 Q 142.503 322.502 139.503 302.002 L 120.003 176.002 A 28.648 28.648 0 0 0 118.2 168.372 A 26.433 26.433 0 0 0 117.503 166.752 Q 115.816 163.167 111.994 162.606 A 10.267 10.267 0 0 0 110.503 162.502 A 8.943 8.943 0 0 0 108.03 162.82 Q 105.19 163.636 104.077 166.549 A 8.423 8.423 0 0 0 104.003 166.752 A 26.526 26.526 0 0 0 102.596 173.549 A 31.572 31.572 0 0 0 102.503 176.002 L 102.503 310.502 A 82.725 82.725 0 0 1 100.791 327.833 Q 97.741 342.072 89.253 352.002 Q 76.003 367.502 51.003 367.502 A 68.919 68.919 0 0 1 36.156 366.007 Q 26.877 363.959 20.041 359.104 A 37.667 37.667 0 0 1 12.503 352.002 A 53.523 53.523 0 0 1 2.569 331.908 Q 0.484 324.088 0.093 314.844 A 102.759 102.759 0 0 1 0.003 310.502 Z M 1867.003 336.502 L 1848.503 336.502 A 64.683 64.683 0 0 1 1822.3 330.746 A 92.332 92.332 0 0 1 1805.503 321.002 A 88.573 88.573 0 0 1 1787.17 302.888 Q 1780.397 294.069 1774.587 282.778 A 178.529 178.529 0 0 1 1769.503 272.002 L 1728.503 177.002 A 70.281 70.281 0 0 1 1724.662 165.247 Q 1723.271 159.123 1723.271 153.281 A 46.636 46.636 0 0 1 1726.753 135.502 A 48.636 48.636 0 0 1 1751.839 109.412 A 64.859 64.859 0 0 1 1755.003 108.002 A 52.292 52.292 0 0 1 1766.939 104.231 Q 1779.838 101.868 1792.503 107.002 A 45.71 45.71 0 0 1 1810.565 120.553 Q 1816.827 128.092 1821.503 139.002 L 1859.503 227.502 Q 1868.989 248.971 1880.221 258.475 A 42.139 42.139 0 0 0 1880.253 258.502 A 27.205 27.205 0 0 0 1885.324 261.939 Q 1892.639 265.707 1900.458 263.032 A 25.773 25.773 0 0 0 1904.003 261.502 A 27.593 27.593 0 0 0 1910.145 257.053 A 19.197 19.197 0 0 0 1916.003 244.752 Q 1917.003 234.002 1905.503 218.502 A 319.95 319.95 0 0 0 1900.431 211.61 Q 1897.725 208.029 1894.641 204.124 A 527.252 527.252 0 0 0 1893.753 203.002 Q 1887.003 194.502 1881.753 183.252 Q 1876.503 172.002 1876.503 158.002 A 56.514 56.514 0 0 1 1879.788 138.399 A 50.021 50.021 0 0 1 1892.503 119.252 A 54.266 54.266 0 0 1 1921.396 105.078 A 76.618 76.618 0 0 1 1934.503 104.002 A 59.762 59.762 0 0 1 1951.451 106.291 A 46.226 46.226 0 0 1 1972.253 119.002 A 51.032 51.032 0 0 1 1985.667 146.905 A 70.999 70.999 0 0 1 1986.503 158.002 Q 1986.503 174.935 1982.534 195.342 A 267.008 267.008 0 0 1 1982.503 195.502 A 495.336 495.336 0 0 1 1977.184 219.664 A 402.56 402.56 0 0 1 1973.503 233.502 L 1937.503 365.002 A 263.631 263.631 0 0 1 1924.849 401.352 A 223.09 223.09 0 0 1 1916.503 418.502 Q 1903.503 442.502 1882.003 456.502 Q 1862.537 469.177 1833.234 470.376 A 152.406 152.406 0 0 1 1827.003 470.502 A 167.413 167.413 0 0 1 1804.507 469.081 Q 1785.866 466.549 1772.253 459.502 A 93.639 93.639 0 0 1 1750.774 444.443 A 81.002 81.002 0 0 1 1739.003 430.502 A 71.897 71.897 0 0 1 1729.781 410.027 A 64.997 64.997 0 0 1 1727.753 398.002 A 65.594 65.594 0 0 1 1727.574 393.191 A 58.616 58.616 0 0 1 1734.003 366.252 Q 1741.503 351.502 1756.503 343.502 A 59.177 59.177 0 0 1 1769.758 338.107 Q 1775.984 336.453 1782.21 336.453 A 47.139 47.139 0 0 1 1787.503 336.752 Q 1803.003 338.502 1816.003 348.252 Q 1829.003 358.002 1836.003 373.502 A 138.444 138.444 0 0 0 1840.715 382.96 Q 1845.925 392.424 1851.253 397.752 Q 1858.825 405.324 1870.931 401.202 A 34.811 34.811 0 0 0 1871.503 401.002 A 13.114 13.114 0 0 0 1877.874 396.696 Q 1882.283 391.07 1880.363 379.634 A 52.18 52.18 0 0 0 1880.253 379.002 A 153.191 153.191 0 0 0 1876.866 364.588 Q 1874.721 357.003 1871.646 348.524 A 325.591 325.591 0 0 0 1867.003 336.502 Z M 2819.003 252.002 L 2783.003 245.002 Q 2760.503 240.502 2739.253 233.252 A 92.915 92.915 0 0 1 2717.986 222.978 A 78.117 78.117 0 0 1 2704.253 211.502 A 46.367 46.367 0 0 1 2704.039 211.275 Q 2690.82 197.146 2690.51 173.159 A 89.589 89.589 0 0 1 2690.503 172.002 A 60.471 60.471 0 0 1 2697.149 143.423 Q 2703.388 131.558 2715.481 122.597 A 82.978 82.978 0 0 1 2720.753 119.002 A 105.313 105.313 0 0 1 2747.114 107.47 Q 2772.057 100.118 2807.379 100.004 A 345.633 345.633 0 0 1 2808.503 100.002 A 287.612 287.612 0 0 1 2839.699 101.614 A 212.902 212.902 0 0 1 2867.753 106.502 A 140.453 140.453 0 0 1 2885.928 112.256 Q 2899.815 117.783 2909.503 125.752 A 44.303 44.303 0 0 1 2919.822 137.622 A 38.773 38.773 0 0 1 2925.003 157.502 A 69.495 69.495 0 0 1 2925.024 159.196 Q 2925.024 166.746 2923.342 173.174 A 40.17 40.17 0 0 1 2914.003 190.502 A 37.494 37.494 0 0 1 2886.664 202.973 A 47.828 47.828 0 0 1 2885.003 203.002 Q 2872.503 203.002 2859.753 199.752 Q 2847.003 196.502 2832.253 192.752 Q 2817.503 189.002 2798.503 188.502 A 105.709 105.709 0 0 0 2793.841 188.256 Q 2784.989 187.993 2778.602 189.455 A 35.576 35.576 0 0 0 2776.503 190.002 A 22.564 22.564 0 0 0 2773.191 191.239 Q 2771.569 192.01 2770.455 192.959 A 6.404 6.404 0 0 0 2768.003 198.002 Q 2768.003 203.822 2777.412 206.113 A 34.51 34.51 0 0 0 2778.003 206.252 Q 2785.659 207.974 2799.177 210.43 A 1397.617 1397.617 0 0 0 2808.003 212.002 L 2843.503 218.502 Q 2864.825 222.11 2880.445 226.902 A 147.667 147.667 0 0 1 2895.253 232.252 Q 2913.769 240.187 2922.339 253.905 A 45.46 45.46 0 0 1 2923.003 255.002 A 53.956 53.956 0 0 1 2928.346 268.008 Q 2930.122 274.451 2930.899 282.187 A 128.492 128.492 0 0 1 2931.503 295.002 A 75.915 75.915 0 0 1 2928.584 316.514 A 60.845 60.845 0 0 1 2916.253 339.252 A 80.181 80.181 0 0 1 2892.953 357.638 A 110.242 110.242 0 0 1 2874.003 365.502 A 177.46 177.46 0 0 1 2843.545 372.071 Q 2828.682 374.002 2812.003 374.002 A 308.868 308.868 0 0 1 2772.885 371.622 A 250.799 250.799 0 0 1 2748.253 367.252 A 143.347 143.347 0 0 1 2727.194 360.758 Q 2715.924 356.244 2707.107 350.06 A 79.766 79.766 0 0 1 2701.503 345.752 A 47.981 47.981 0 0 1 2684.132 310.641 A 65.248 65.248 0 0 1 2684.003 306.502 A 58.417 58.417 0 0 1 2686.316 289.696 A 46.845 46.845 0 0 1 2697.003 271.002 A 43.143 43.143 0 0 1 2724.677 257.379 A 60.125 60.125 0 0 1 2731.503 257.002 A 91.151 91.151 0 0 1 2756.606 260.614 A 102.671 102.671 0 0 1 2758.753 261.252 A 613.529 613.529 0 0 0 2778.486 266.977 A 718.922 718.922 0 0 0 2788.003 269.502 Q 2803.503 273.502 2821.503 273.502 Q 2836.53 273.502 2842.295 271.958 A 15.902 15.902 0 0 0 2843.003 271.752 A 10.559 10.559 0 0 0 2845.505 270.613 Q 2848.269 268.843 2848.484 265.568 A 8.604 8.604 0 0 0 2848.503 265.002 A 8.002 8.002 0 0 0 2847.668 261.277 Q 2846.13 258.299 2841.753 257.002 Q 2835.537 255.16 2821.476 252.47 A 685.673 685.673 0 0 0 2819.003 252.002 Z M 2268.503 271.002 L 2268.503 52.002 A 59.515 59.515 0 0 1 2270.264 37.097 A 41.056 41.056 0 0 1 2282.753 16.252 A 49.186 49.186 0 0 1 2307.499 4.51 A 68.564 68.564 0 0 1 2319.503 3.502 Q 2343.003 3.502 2357.003 16.252 A 41.654 41.654 0 0 1 2369.736 39.093 A 62.371 62.371 0 0 1 2371.003 52.002 L 2371.003 265.002 Q 2371.003 274.502 2376.003 278.252 A 6.851 6.851 0 0 0 2379.236 279.538 Q 2383.496 280.127 2390.319 276.673 A 54.036 54.036 0 0 0 2392.503 275.502 Q 2411.643 264.4 2427.56 256.669 A 343.64 343.64 0 0 1 2437.003 252.252 A 100.863 100.863 0 0 1 2471.242 243.816 A 120.486 120.486 0 0 1 2480.003 243.502 Q 2502.727 243.502 2517.629 251.813 A 49.011 49.011 0 0 1 2529.003 260.502 Q 2545.503 277.502 2545.503 305.002 Q 2545.503 334.502 2527.753 350.502 Q 2510.003 366.502 2471.003 366.502 L 2368.003 366.502 A 232.352 232.352 0 0 1 2344.856 365.418 Q 2333.555 364.284 2323.937 361.963 A 111.888 111.888 0 0 1 2313.003 358.752 Q 2291.003 351.002 2279.753 330.502 A 75.218 75.218 0 0 1 2273.348 314.222 Q 2268.503 296.596 2268.503 271.002 Z M 743.503 270.502 L 743.503 182.502 L 725.003 185.002 A 30.784 30.784 0 0 1 720.931 185.278 Q 711.399 185.278 703.375 179.025 A 40.313 40.313 0 0 1 698.503 174.502 A 43.129 43.129 0 0 1 687.342 149.341 A 57.687 57.687 0 0 1 687.003 143.002 A 51.353 51.353 0 0 1 689.049 128.172 A 40.832 40.832 0 0 1 698.503 111.752 Q 710.003 99.502 725.003 101.502 L 743.503 104.002 L 743.003 70.002 Q 742.503 50.002 754.503 38.252 Q 764.907 28.064 783.582 26.709 A 81.883 81.883 0 0 1 789.503 26.502 A 72.244 72.244 0 0 1 803.466 27.767 Q 811.626 29.376 817.958 33.031 A 37.929 37.929 0 0 1 825.003 38.252 A 36.192 36.192 0 0 1 836.235 61.122 Q 836.577 63.998 836.577 67.084 A 58.43 58.43 0 0 1 836.503 70.002 L 835.503 104.002 L 862.003 100.502 Q 889.003 96.502 903.003 110.252 A 46.687 46.687 0 0 1 913.823 126.085 A 44.694 44.694 0 0 1 917.003 143.002 A 44.639 44.639 0 0 1 903.679 175.321 A 55.884 55.884 0 0 1 903.253 175.752 A 36.543 36.543 0 0 1 884.12 185.72 Q 875.012 187.551 863.503 186.002 L 835.503 182.502 L 835.503 257.002 A 17.474 17.474 0 0 0 839.591 268.257 A 22.162 22.162 0 0 0 840.003 268.752 Q 844.503 274.002 851.003 272.002 A 34.563 34.563 0 0 0 857.709 269.39 Q 860.736 267.856 863.875 265.648 A 66.004 66.004 0 0 0 866.753 263.502 A 29.396 29.396 0 0 1 878.746 257.954 A 42.585 42.585 0 0 1 888.003 257.002 A 43.339 43.339 0 0 1 900.856 258.81 A 33.29 33.29 0 0 1 918.003 271.002 A 51.833 51.833 0 0 1 927.577 293.903 A 70.02 70.02 0 0 1 928.503 305.502 A 46.905 46.905 0 0 1 922.5 328.21 A 62.872 62.872 0 0 1 917.253 336.252 A 70.061 70.061 0 0 1 900.632 351.74 A 95.101 95.101 0 0 1 885.503 360.002 Q 866.364 368.404 840.253 368.962 A 175.531 175.531 0 0 1 836.503 369.002 A 100.521 100.521 0 0 1 805.451 364.322 A 90.233 90.233 0 0 1 788.753 357.002 Q 767.503 345.002 755.503 322.752 A 98.442 98.442 0 0 1 745.19 291.912 A 130.605 130.605 0 0 1 743.503 270.502 Z M 3008.003 270.502 L 3008.003 182.502 L 2989.503 185.002 A 30.784 30.784 0 0 1 2985.431 185.278 Q 2975.899 185.278 2967.875 179.025 A 40.313 40.313 0 0 1 2963.003 174.502 A 43.129 43.129 0 0 1 2951.842 149.341 A 57.687 57.687 0 0 1 2951.503 143.002 A 51.353 51.353 0 0 1 2953.549 128.172 A 40.832 40.832 0 0 1 2963.003 111.752 Q 2974.503 99.502 2989.503 101.502 L 3008.003 104.002 L 3007.503 70.002 Q 3007.003 50.002 3019.003 38.252 Q 3029.407 28.064 3048.082 26.709 A 81.883 81.883 0 0 1 3054.003 26.502 A 72.244 72.244 0 0 1 3067.966 27.767 Q 3076.126 29.376 3082.458 33.031 A 37.929 37.929 0 0 1 3089.503 38.252 A 36.192 36.192 0 0 1 3100.735 61.122 Q 3101.077 63.998 3101.077 67.084 A 58.43 58.43 0 0 1 3101.003 70.002 L 3100.003 104.002 L 3126.503 100.502 Q 3153.503 96.502 3167.503 110.252 A 46.687 46.687 0 0 1 3178.323 126.085 A 44.694 44.694 0 0 1 3181.503 143.002 A 44.639 44.639 0 0 1 3168.179 175.321 A 55.884 55.884 0 0 1 3167.753 175.752 A 36.543 36.543 0 0 1 3148.62 185.72 Q 3139.512 187.551 3128.003 186.002 L 3100.003 182.502 L 3100.003 257.002 A 17.474 17.474 0 0 0 3104.091 268.257 A 22.162 22.162 0 0 0 3104.503 268.752 Q 3109.003 274.002 3115.503 272.002 A 34.563 34.563 0 0 0 3122.209 269.39 Q 3125.236 267.856 3128.375 265.648 A 66.004 66.004 0 0 0 3131.253 263.502 A 29.396 29.396 0 0 1 3143.246 257.954 A 42.585 42.585 0 0 1 3152.503 257.002 A 43.339 43.339 0 0 1 3165.356 258.81 A 33.29 33.29 0 0 1 3182.503 271.002 A 51.833 51.833 0 0 1 3192.077 293.903 A 70.02 70.02 0 0 1 3193.003 305.502 A 46.905 46.905 0 0 1 3187 328.21 A 62.872 62.872 0 0 1 3181.753 336.252 A 70.061 70.061 0 0 1 3165.132 351.74 A 95.101 95.101 0 0 1 3150.003 360.002 Q 3130.864 368.404 3104.753 368.962 A 175.531 175.531 0 0 1 3101.003 369.002 A 100.521 100.521 0 0 1 3069.951 364.322 A 90.233 90.233 0 0 1 3053.253 357.002 Q 3032.003 345.002 3020.003 322.752 A 98.442 98.442 0 0 1 3009.69 291.912 A 130.605 130.605 0 0 1 3008.003 270.502 Z M 1561.677 364.681 A 159.267 159.267 0 0 0 1599.503 369.002 A 200.376 200.376 0 0 0 1624.249 367.53 A 153.159 153.159 0 0 0 1656.003 360.252 A 143.311 143.311 0 0 0 1658.18 359.47 Q 1681.64 350.832 1695.503 336.252 Q 1710.003 321.002 1710.003 301.502 A 73.055 73.055 0 0 0 1708.684 287.296 A 51.975 51.975 0 0 0 1697.753 263.752 Q 1689.235 253.496 1674.312 250.371 A 69.877 69.877 0 0 0 1660.003 249.002 A 83.909 83.909 0 0 0 1649.981 249.576 A 63.106 63.106 0 0 0 1638.503 252.002 Q 1629.003 255.002 1618.503 258.002 A 63.686 63.686 0 0 1 1613.306 259.243 Q 1604.37 261.002 1592.503 261.002 A 96.856 96.856 0 0 1 1590.288 260.977 Q 1572.738 260.575 1560.503 253.752 A 23.747 23.747 0 0 1 1548.837 239.623 A 32.633 32.633 0 0 1 1547.503 230.002 Q 1547.503 220.877 1551.731 215.004 A 21.768 21.768 0 0 1 1560.503 208.002 A 54.456 54.456 0 0 1 1565.135 206.121 Q 1571.279 203.944 1578.574 202.917 A 100.086 100.086 0 0 1 1592.503 202.002 A 202.344 202.344 0 0 1 1604.464 202.338 Q 1619.536 203.232 1630.253 206.502 A 101.467 101.467 0 0 0 1659.768 211.002 A 99.929 99.929 0 0 0 1660.003 211.002 A 75.227 75.227 0 0 0 1661.008 210.995 Q 1668.509 210.895 1674.819 209.291 A 38.73 38.73 0 0 0 1694.503 197.752 A 40.825 40.825 0 0 0 1699.138 191.531 Q 1703.308 184.669 1705.117 175.791 A 74.115 74.115 0 0 0 1706.503 161.002 A 54.254 54.254 0 0 0 1706.482 159.488 A 42.661 42.661 0 0 0 1692.753 128.502 A 63.956 63.956 0 0 0 1688.621 124.921 Q 1681.54 119.289 1672.282 115.072 A 113.041 113.041 0 0 0 1655.253 109.002 A 151.592 151.592 0 0 0 1651.877 108.12 Q 1639.937 105.146 1626.24 103.746 A 253.474 253.474 0 0 0 1600.503 102.502 A 171.276 171.276 0 0 0 1577.865 103.956 A 134.581 134.581 0 0 0 1530.753 119.002 Q 1500.503 135.502 1483.503 165.502 A 126.127 126.127 0 0 0 1470.238 200.34 A 162.907 162.907 0 0 0 1466.503 236.002 A 169.94 169.94 0 0 0 1468.512 262.605 A 129.227 129.227 0 0 0 1483.503 306.502 Q 1500.503 336.502 1530.503 352.752 A 129.617 129.617 0 0 0 1561.677 364.681 Z M 2097.677 364.681 A 159.267 159.267 0 0 0 2135.503 369.002 A 200.376 200.376 0 0 0 2160.249 367.53 A 153.159 153.159 0 0 0 2192.003 360.252 A 143.311 143.311 0 0 0 2194.18 359.47 Q 2217.64 350.832 2231.503 336.252 Q 2246.003 321.002 2246.003 301.502 A 73.055 73.055 0 0 0 2244.684 287.296 A 51.975 51.975 0 0 0 2233.753 263.752 Q 2225.235 253.496 2210.312 250.371 A 69.877 69.877 0 0 0 2196.003 249.002 A 83.909 83.909 0 0 0 2185.981 249.576 A 63.106 63.106 0 0 0 2174.503 252.002 Q 2165.003 255.002 2154.503 258.002 A 63.686 63.686 0 0 1 2149.306 259.243 Q 2140.37 261.002 2128.503 261.002 A 96.856 96.856 0 0 1 2126.288 260.977 Q 2108.738 260.575 2096.503 253.752 A 23.747 23.747 0 0 1 2084.837 239.623 A 32.633 32.633 0 0 1 2083.503 230.002 Q 2083.503 220.877 2087.731 215.004 A 21.768 21.768 0 0 1 2096.503 208.002 A 54.456 54.456 0 0 1 2101.135 206.121 Q 2107.279 203.944 2114.574 202.917 A 100.086 100.086 0 0 1 2128.503 202.002 A 202.344 202.344 0 0 1 2140.464 202.338 Q 2155.536 203.232 2166.253 206.502 A 101.467 101.467 0 0 0 2195.768 211.002 A 99.929 99.929 0 0 0 2196.003 211.002 A 75.227 75.227 0 0 0 2197.008 210.995 Q 2204.509 210.895 2210.819 209.291 A 38.73 38.73 0 0 0 2230.503 197.752 A 40.825 40.825 0 0 0 2235.138 191.531 Q 2239.308 184.669 2241.117 175.791 A 74.115 74.115 0 0 0 2242.503 161.002 A 54.254 54.254 0 0 0 2242.482 159.488 A 42.661 42.661 0 0 0 2228.753 128.502 A 63.956 63.956 0 0 0 2224.621 124.921 Q 2217.54 119.289 2208.282 115.072 A 113.041 113.041 0 0 0 2191.253 109.002 A 151.592 151.592 0 0 0 2187.877 108.12 Q 2175.937 105.146 2162.24 103.746 A 253.474 253.474 0 0 0 2136.503 102.502 A 171.276 171.276 0 0 0 2113.865 103.956 A 134.581 134.581 0 0 0 2066.753 119.002 Q 2036.503 135.502 2019.503 165.502 A 126.127 126.127 0 0 0 2006.238 200.34 A 162.907 162.907 0 0 0 2002.503 236.002 A 169.94 169.94 0 0 0 2004.512 262.605 A 129.227 129.227 0 0 0 2019.503 306.502 Q 2036.503 336.502 2066.503 352.752 A 129.617 129.617 0 0 0 2097.677 364.681 Z M 1230.003 320.002 L 1230.003 156.002 A 58.532 58.532 0 0 1 1232.491 138.577 A 47.974 47.974 0 0 1 1243.003 120.252 A 42.461 42.461 0 0 1 1266.157 107.325 A 63.775 63.775 0 0 1 1279.503 106.002 A 61.878 61.878 0 0 1 1294.05 107.61 A 40.328 40.328 0 0 1 1315.503 120.252 A 50.094 50.094 0 0 1 1327.91 151.525 A 64.709 64.709 0 0 1 1328.003 155.002 L 1328.003 165.502 L 1337.503 165.502 A 70.19 70.19 0 0 1 1343.194 142.059 A 62.178 62.178 0 0 1 1357.503 122.002 Q 1375.503 105.002 1400.003 105.002 A 64.576 64.576 0 0 1 1416.613 107.024 A 46.274 46.274 0 0 1 1438.753 120.002 A 50.579 50.579 0 0 1 1451.594 145.268 A 73.308 73.308 0 0 1 1453.003 160.002 A 67.367 67.367 0 0 1 1450.6 178.406 A 52.876 52.876 0 0 1 1439.503 199.002 A 43.366 43.366 0 0 1 1407.919 214.425 A 54.851 54.851 0 0 1 1405.003 214.502 A 61.429 61.429 0 0 1 1391.733 213.14 A 44.009 44.009 0 0 1 1375.753 206.252 A 59.791 59.791 0 0 1 1365.836 197.614 A 46.888 46.888 0 0 1 1358.503 187.002 A 75.222 75.222 0 0 0 1354.287 186.59 Q 1341.511 185.72 1335.253 190.252 A 14.704 14.704 0 0 0 1330.559 196.209 Q 1328.279 201.195 1328.032 209.058 A 62.171 62.171 0 0 0 1328.003 211.002 L 1328.003 320.002 A 55.212 55.212 0 0 1 1325.61 336.599 A 45.244 45.244 0 0 1 1315.503 354.002 Q 1303.589 366.868 1281.684 367.472 A 79.172 79.172 0 0 1 1279.503 367.502 A 65.617 65.617 0 0 1 1264.587 365.907 Q 1253.421 363.301 1245.563 356.441 A 40.869 40.869 0 0 1 1243.003 354.002 A 46.055 46.055 0 0 1 1230.158 324.402 A 61.229 61.229 0 0 1 1230.003 320.002 Z M 498.016 363.628 A 159.24 159.24 0 0 0 538.503 368.502 A 217.405 217.405 0 0 0 556.832 367.756 Q 608.154 363.411 635.253 333.752 Q 667.003 299.002 667.003 235.502 Q 667.003 196.502 652.753 167.002 Q 638.503 137.502 610.003 120.752 A 103.722 103.722 0 0 0 600.592 115.857 Q 586.229 109.286 568.714 106.357 A 183.292 183.292 0 0 0 538.503 104.002 Q 500.003 104.002 471.253 120.752 Q 442.503 137.502 426.503 167.002 A 127.345 127.345 0 0 0 414.379 199.413 A 161.089 161.089 0 0 0 410.503 235.502 A 222.321 222.321 0 0 0 410.643 243.447 Q 412.709 301.208 445.253 333.752 A 114.066 114.066 0 0 0 498.016 363.628 Z M 1036.516 363.628 A 159.24 159.24 0 0 0 1077.003 368.502 A 217.405 217.405 0 0 0 1095.332 367.756 Q 1146.654 363.411 1173.753 333.752 Q 1205.503 299.002 1205.503 235.502 Q 1205.503 196.502 1191.253 167.002 Q 1177.003 137.502 1148.503 120.752 A 103.722 103.722 0 0 0 1139.092 115.857 Q 1124.729 109.286 1107.214 106.357 A 183.292 183.292 0 0 0 1077.003 104.002 Q 1038.503 104.002 1009.753 120.752 Q 981.003 137.502 965.003 167.002 A 127.345 127.345 0 0 0 952.879 199.413 A 161.089 161.089 0 0 0 949.003 235.502 A 222.321 222.321 0 0 0 949.143 243.447 Q 951.209 301.208 983.753 333.752 A 114.066 114.066 0 0 0 1036.516 363.628 Z M 2565.003 322.002 L 2565.003 151.002 Q 2565.003 129.502 2576.503 117.002 A 35.949 35.949 0 0 1 2592.108 107.248 Q 2597.869 105.36 2604.875 104.77 A 79.013 79.013 0 0 1 2611.503 104.502 Q 2627.898 104.502 2638.575 110.586 A 34.785 34.785 0 0 1 2646.753 117.002 A 42.396 42.396 0 0 1 2657.467 138.535 A 60.635 60.635 0 0 1 2658.503 150.002 L 2658.503 322.002 A 51.102 51.102 0 0 1 2655.988 338.339 A 43.498 43.498 0 0 1 2646.253 354.502 A 39.843 39.843 0 0 1 2626.351 365.823 Q 2619.589 367.502 2611.503 367.502 A 67.347 67.347 0 0 1 2598.142 366.264 Q 2590.442 364.704 2584.558 361.177 A 34.054 34.054 0 0 1 2576.503 354.502 A 45.465 45.465 0 0 1 2565.374 328.8 A 60.672 60.672 0 0 1 2565.003 322.002 Z M 470.003 227.002 Q 470.003 242.502 485.503 248.752 A 60.261 60.261 0 0 0 495.289 251.631 Q 510.964 255.002 538.503 255.002 Q 576.003 255.002 591.503 248.752 A 29.696 29.696 0 0 0 599.254 244.296 Q 606.609 238.282 606.983 228.103 A 30.031 30.031 0 0 0 607.003 227.002 A 22.147 22.147 0 0 0 604.935 217.245 Q 602.472 212.148 597.073 208.756 A 32.481 32.481 0 0 0 591.503 206.002 A 62.17 62.17 0 0 0 581.716 203.238 Q 571.185 201.064 555.298 200.35 A 375.964 375.964 0 0 0 538.503 200.002 Q 509.654 200.002 493.826 203.553 A 58.959 58.959 0 0 0 485.503 206.002 Q 470.177 211.934 470.005 226.666 A 28.743 28.743 0 0 0 470.003 227.002 Z M 1008.503 227.002 Q 1008.503 242.502 1024.003 248.752 A 60.261 60.261 0 0 0 1033.789 251.631 Q 1049.464 255.002 1077.003 255.002 Q 1114.503 255.002 1130.003 248.752 A 29.696 29.696 0 0 0 1137.754 244.296 Q 1145.109 238.282 1145.483 228.103 A 30.031 30.031 0 0 0 1145.503 227.002 A 22.147 22.147 0 0 0 1143.435 217.245 Q 1140.972 212.148 1135.573 208.756 A 32.481 32.481 0 0 0 1130.003 206.002 A 62.17 62.17 0 0 0 1120.216 203.238 Q 1109.685 201.064 1093.798 200.35 A 375.964 375.964 0 0 0 1077.003 200.002 Q 1048.154 200.002 1032.326 203.553 A 58.959 58.959 0 0 0 1024.003 206.002 Q 1008.677 211.934 1008.505 226.666 A 28.743 28.743 0 0 0 1008.503 227.002 Z M 2563.525 32.464 A 56.856 56.856 0 0 0 2561.503 48.002 A 59.404 59.404 0 0 0 2561.97 55.566 A 42.96 42.96 0 0 0 2574.253 81.252 Q 2583.018 90.017 2597.338 92.757 A 75.47 75.47 0 0 0 2611.503 94.002 A 85.984 85.984 0 0 0 2619.72 93.625 Q 2638.608 91.81 2648.753 81.252 A 42.304 42.304 0 0 0 2659.28 62.092 A 58.604 58.604 0 0 0 2661.003 47.502 Q 2661.003 26.002 2648.753 13.002 A 36.074 36.074 0 0 0 2639.413 5.909 Q 2628.355 0.002 2611.503 0.002 A 82.13 82.13 0 0 0 2610.441 0.009 Q 2602.517 0.111 2595.781 1.75 A 43.646 43.646 0 0 0 2574.753 13.252 A 43.457 43.457 0 0 0 2563.525 32.464 Z"/></g></svg>